<svg width="1765" height="2015" xmlns="http://www.w3.org/2000/svg" xml:space="preserve" overflow="hidden"><path d="M1479.76 654.726c-29.15 14.554-46.87 22.506-63.42 32.066-162.17 93.628-323.65 188.448-486.93 279.768-37.47 17.5-59.8 56.77-55.68 97.92 2.14 294.65.83 587.65.72 881.56-.06 19.61-.31 38.87-1.16 68.95-69.93-39.52-134.11-74.61-196.45-111.23-208.25-119.43-414.65-240.39-622.61-359.32-34.59-15-55.76-50.4-52.62-87.97 2.41-295.46 2.34-590.85-.2-886.186-4.35-46.123 20.87-89.973 62.93-109.397A55409.663 55409.663 0 0 0 832.52 17.382c30.68-22.595 72.54-22.453 103.08.348 70.9 43.962 143.01 84.495 225.57 132.879l-58.72 33.903c-256.06 147.835-512.12 295.67-768.67 442.652-34.63 15.877-55.52 51.818-52.19 89.765 2.08 193.631 2.2 387.261.34 580.881-3.52 33.16 14.19 64.94 44.24 79.39 55.16 28.92 108.19 62.03 162.58 92.77 15.17 8.54 31.36 14.9 56.6 26.27.98-48.36 2.63-88.46 2.87-128.66.58-165.35 1.58-331.17.38-496.86-3.26-33.34 14.92-65.1 45.32-79.19a97958.066 97958.066 0 0 0 797.87-460.657c25.52-18.654 60.1-18.918 85.89-.652 81.05 49.711 163.8 96.847 247.11 142.979 25.72 10.918 41.57 37.076 39.31 64.933-1.84 312.197-.55 623.507-1.88 935.407a64.829 64.829 0 0 1-21.29 49.85c-195.86 114.9-394.22 229.43-601.8 349.27-1.14-80.82 4.35-154.1-2.96-225.9-7.31-71.8 22.17-110.21 84.51-139.83 72.26-34.89 139.29-80.42 210.03-118.76 36.54-16.02 58.45-53.92 54.08-93.58-2.74-185.29-.26-370.63-.18-556.172-.13-24.278-2.71-48.055-4.85-83.692z" fill-rule="evenodd"/></svg>