<svg width="720" height="720" xmlns="http://www.w3.org/2000/svg" xmlns:xlink="http://www.w3.org/1999/xlink" xml:space="preserve" overflow="hidden"><g transform="translate(-280 0)"><path d="M810.4 259.272C802.048 263.424 796.96 265.68 792.28 268.392 746.008 295.128 699.928 322.176 653.344 348.264 642.654 353.258 636.285 364.459 637.456 376.2 638.08 460.248 637.696 543.84 637.648 627.72 637.648 633.288 637.576 638.832 637.336 647.4 617.368 636.12 599.08 626.112 581.272 615.648 521.872 581.568 462.976 547.056 403.624 513.12 393.763 508.829 387.731 498.732 388.624 488.016 389.32 403.728 389.32 319.464 388.576 235.224 387.346 222.058 394.549 209.547 406.552 204 479.928 162.393 552.971 120.2 625.672 77.424 634.427 70.9639 646.382 71.003 655.096 77.52 675.328 90.072 695.896 101.64 719.464 115.464L702.712 125.112C629.67 167.338 556.559 209.442 483.376 251.424 473.506 255.948 467.549 266.191 468.496 277.008 469.048 332.28 469.12 387.528 468.568 442.776 467.573 452.237 472.638 461.299 481.216 465.408 496.936 473.688 512.08 483.096 527.608 491.88 531.928 494.304 536.536 496.128 543.76 499.368 544.048 485.592 544.48 474.144 544.552 462.648 544.72 415.488 545.032 368.184 544.672 320.904 543.734 311.39 548.913 302.321 557.584 298.296 633.686 254.861 709.583 211.069 785.272 166.92 792.544 161.588 802.41 161.502 809.776 166.704 832.888 180.888 856.528 194.352 880.264 207.504 887.625 210.61 892.156 218.094 891.496 226.056 890.992 315.096 891.352 403.92 890.968 492.936 891.11 498.336 888.882 503.527 884.872 507.144 827.754 540.566 770.524 573.79 713.176 606.816 712.864 583.728 714.424 562.848 712.312 542.328 710.272 521.88 718.648 510.888 736.456 502.44 757.048 492.48 776.2 479.496 796.384 468.576 806.824 464.016 813.064 453.168 811.792 441.864 811.048 388.992 811.72 336.12 811.792 283.176 811.72 276.24 810.976 269.496 810.352 259.296L810.376 259.272Z" fill="#228BE6" fill-rule="evenodd"/></g></svg>