<svg width="2475" height="2476" xmlns="http://www.w3.org/2000/svg" xmlns:xlink="http://www.w3.org/1999/xlink" xml:space="preserve" overflow="hidden"><defs><clipPath id="clip0"><rect x="963" y="0" width="2475" height="2476"/></clipPath></defs><g clip-path="url(#clip0)" transform="translate(-963 0)"><path d="M963 1237.5C963 554.047 1517.05-4.72842e-13 2200.5-6.30456e-13L2200.5 0C2883.95-1.57614e-13 3438 554.047 3438 1237.5L3438 1238.5C3438 1921.95 2883.95 2476 2200.5 2476L2200.5 2476C1517.05 2476 963 1921.95 963 1238.5Z" fill-rule="evenodd"/><path d="M2585.36 1009.85C2566.55 1019.23 2555.12 1024.36 2544.44 1030.53 2439.78 1090.9 2335.57 1152.05 2230.2 1210.93 2206.02 1222.22 2191.6 1247.54 2194.26 1274.07 2195.64 1464.08 2194.8 1653.01 2194.73 1842.54 2194.69 1855.18 2194.53 1867.6 2193.98 1887 2148.85 1861.52 2107.43 1838.89 2067.2 1815.27 1932.81 1738.26 1799.61 1660.26 1665.4 1583.57 1643.08 1573.9 1629.42 1551.07 1631.44 1526.84 1633 1336.32 1632.95 1145.84 1631.31 955.398 1628.51 925.656 1644.78 897.38 1671.93 884.855 1837.93 790.848 2003.19 695.516 2167.67 598.866 2187.47 584.296 2214.48 584.387 2234.19 599.09 2279.95 627.438 2326.48 653.576 2379.76 684.776L2341.87 706.638C2176.62 801.967 2011.37 897.297 1845.81 992.077 1823.46 1002.31 1809.98 1025.49 1812.13 1049.96 1813.47 1174.82 1813.55 1299.68 1812.35 1424.53 1810.07 1445.92 1821.5 1466.41 1840.9 1475.73 1876.49 1494.38 1910.72 1515.73 1945.82 1535.55 1955.61 1541.06 1966.06 1545.16 1982.34 1552.49 1982.98 1521.31 1984.04 1495.45 1984.2 1469.53 1984.57 1362.9 1985.22 1255.97 1984.44 1149.13 1982.34 1127.63 1994.07 1107.15 2013.69 1098.07 2185.79 999.857 2357.43 900.839 2528.59 801.017 2545.06 788.988 2567.38 788.818 2584.02 800.596 2636.33 832.652 2689.73 863.047 2743.49 892.795 2760.09 899.835 2770.32 916.703 2768.86 934.666 2767.67 1135.98 2768.51 1336.73 2767.65 1537.85 2767.99 1550.06 2762.97 1561.8 2753.91 1570 2627.51 1644.09 2499.5 1717.94 2365.54 1795.22 2364.8 1743.1 2368.35 1695.85 2363.63 1649.55 2358.91 1603.25 2377.94 1578.48 2418.17 1559.38 2464.8 1536.89 2508.06 1507.53 2553.71 1482.8 2577.29 1472.47 2591.43 1448.03 2588.61 1422.46 2586.84 1302.98 2588.44 1183.46 2588.49 1063.82 2588.41 1048.16 2586.75 1032.83 2585.36 1009.85Z" fill="#FFFFFF" fill-rule="evenodd"/></g></svg>