<svg width="4400" height="2475" xmlns="http://www.w3.org/2000/svg" xmlns:xlink="http://www.w3.org/1999/xlink" xml:space="preserve" overflow="hidden"><defs><linearGradient x1="1142.43" y1="-642.619" x2="3257.57" y2="3117.62" gradientUnits="userSpaceOnUse" spreadMethod="reflect" id="fill0"><stop offset="0" stop-color="#262626"/><stop offset="0.027027" stop-color="#252525"/><stop offset="0.0540541" stop-color="#252525"/><stop offset="0.0810811" stop-color="#252525"/><stop offset="0.108108" stop-color="#252525"/><stop offset="0.135135" stop-color="#252525"/><stop offset="0.162162" stop-color="#242424"/><stop offset="0.189189" stop-color="#242424"/><stop offset="0.216216" stop-color="#232323"/><stop offset="0.243243" stop-color="#232323"/><stop offset="0.27027" stop-color="#222222"/><stop offset="0.297297" stop-color="#222222"/><stop offset="0.324324" stop-color="#212121"/><stop offset="0.351351" stop-color="#202020"/><stop offset="0.378378" stop-color="#1F1F1F"/><stop offset="0.405405" stop-color="#1F1F1F"/><stop offset="0.432432" stop-color="#1E1E1E"/><stop offset="0.459459" stop-color="#1D1D1D"/><stop offset="0.486486" stop-color="#1C1C1C"/><stop offset="0.513514" stop-color="#1B1B1B"/><stop offset="0.540541" stop-color="#1A1A1A"/><stop offset="0.567568" stop-color="#181818"/><stop offset="0.594595" stop-color="#171717"/><stop offset="0.621622" stop-color="#161616"/><stop offset="0.648649" stop-color="#151515"/><stop offset="0.675676" stop-color="#131313"/><stop offset="0.702703" stop-color="#121212"/><stop offset="0.72973" stop-color="#101010"/><stop offset="0.756757" stop-color="#0F0F0F"/><stop offset="0.783784" stop-color="#0D0D0D"/><stop offset="0.810811" stop-color="#0C0C0C"/><stop offset="0.837838" stop-color="#0A0A0A"/><stop offset="0.864865" stop-color="#090909"/><stop offset="0.891892" stop-color="#070707"/><stop offset="0.918919" stop-color="#050505"/><stop offset="0.945946" stop-color="#030303"/><stop offset="0.972973" stop-color="#010101"/><stop offset="1"/></linearGradient></defs><g><rect x="0" y="0" width="4400" height="2475" fill="url(#fill0)"/><text fill="#FFFFFF" font-family="HarmonyOS Sans,HarmonyOS Sans_MSFontService,sans-serif" font-weight="700" font-size="229" transform="matrix(1 0 0 1 1595.36 1319)">Youming </text><text fill="#0066FF" font-family="HarmonyOS Sans SC,HarmonyOS Sans SC_MSFontService,sans-serif" font-weight="700" font-size="229" transform="matrix(1 0 0 1 2632.34 1319)">工作室</text><path d="M1371.78 1157.76C1365.2 1161.05 1361.2 1162.84 1357.46 1165 1320.86 1186.15 1284.41 1207.57 1247.56 1228.19 1239.1 1232.15 1234.06 1241.02 1234.99 1250.31 1235.48 1316.86 1235.18 1383.04 1235.16 1449.43 1235.14 1453.86 1235.09 1458.21 1234.89 1465 1219.11 1456.07 1204.63 1448.15 1190.56 1439.88 1143.55 1412.9 1096.97 1385.58 1050.03 1358.72 1042.22 1355.33 1037.45 1347.33 1038.15 1338.85 1038.7 1272.11 1038.68 1205.4 1038.11 1138.69 1037.13 1128.27 1042.82 1118.37 1052.31 1113.98 1110.37 1081.05 1168.17 1047.66 1225.69 1013.81 1232.62 1008.7 1242.06 1008.73 1248.96 1013.88 1264.96 1023.81 1281.24 1032.97 1299.87 1043.9L1286.62 1051.55C1228.82 1084.95 1171.03 1118.34 1113.13 1151.54 1105.31 1155.12 1100.6 1163.24 1101.35 1171.81 1101.82 1215.55 1101.84 1259.28 1101.42 1303.01 1100.63 1310.5 1104.63 1317.68 1111.41 1320.94 1123.86 1327.48 1135.83 1334.95 1148.1 1341.9 1151.53 1343.83 1155.18 1345.26 1160.88 1347.83 1161.1 1336.91 1161.47 1327.85 1161.53 1318.77 1161.66 1281.42 1161.88 1243.97 1161.61 1206.55 1160.88 1199.02 1164.98 1191.84 1171.84 1188.66 1232.03 1154.26 1292.06 1119.58 1351.92 1084.61 1357.68 1080.4 1365.49 1080.34 1371.31 1084.47 1389.6 1095.69 1408.28 1106.34 1427.08 1116.76 1432.88 1119.23 1436.46 1125.13 1435.95 1131.43 1435.54 1201.94 1435.83 1272.26 1435.53 1342.7 1435.65 1346.98 1433.89 1351.09 1430.72 1353.96 1386.52 1379.92 1341.75 1405.78 1294.89 1432.85 1294.64 1414.6 1295.88 1398.05 1294.23 1381.83 1292.58 1365.61 1299.23 1356.94 1313.3 1350.25 1329.61 1342.37 1344.74 1332.08 1360.71 1323.42 1368.95 1319.8 1373.9 1311.24 1372.91 1302.29 1372.29 1260.43 1372.85 1218.57 1372.87 1176.66 1372.84 1171.18 1372.26 1165.81 1371.78 1157.76Z" fill="#FFFFFF" fill-rule="evenodd"/></g></svg>